<?xml version="1.0" encoding="utf-8"?>
<svg viewBox="0 0 500 500" xmlns="http://www.w3.org/2000/svg">
  <g transform="matrix(0.10000000149011612, 0, 0, -0.10000000149011612, 72.1312026977539, 270.7865295410156)" fill="#0857bf" stroke="none">
    <path d="M 71.455 1722.629 C -345.605 1482.481 -355.533 1453.661 -355.533 982.968 C -355.533 521.882 -335.674 473.85 21.807 252.907 C 369.354 22.367 389.213 -25.663 359.423 -371.482 C 319.707 -736.512 339.566 -765.333 786.411 -1024.692 L 1253.119 -1284.056 L 1640.391 -1082.33 L 2027.66 -870.996 L 2414.925 -1082.33 L 2802.196 -1284.056 L 3258.972 -1024.692 L 3725.68 -765.333 L 3695.891 -265.817 C 3666.099 195.274 3636.311 233.696 3298.694 416.21 C 2951.145 598.727 2921.354 637.148 2921.354 1040.606 C 2921.354 1453.661 2901.496 1492.09 2474.505 1741.846 L 2017.729 2001.205 L 1650.322 1770.661 L 1272.983 1540.116 L 885.711 1761.057 L 488.515 1981.994 L 71.455 1722.629 Z M 816.2 1492.09 C 994.94 1280.753 607.676 1107.848 279.985 1251.935 C 41.666 1357.605 31.733 1376.816 200.547 1492.09 C 428.935 1655.388 687.114 1655.388 816.2 1492.09 Z M 2375.208 1463.27 C 2524.158 1367.209 2623.455 1213.512 2623.455 1079.029 C 2623.455 810.06 2593.665 800.452 2275.905 1002.178 C 2047.518 1146.27 2007.794 1127.059 1272.983 713.999 C 518.305 300.937 488.515 291.335 230.338 435.424 C 1.943 569.907 -216.514 1011.787 -107.286 1117.451 C -87.422 1136.662 61.524 1079.029 220.405 982.968 C 518.305 819.664 518.305 819.664 1193.538 1213.512 C 1978.006 1655.388 2047.518 1674.605 2375.208 1463.27 Z M 2265.974 704.391 C 2464.578 560.303 2464.578 560.303 2265.974 416.21 C 2027.66 243.303 2007.794 243.303 1769.482 406.609 C 1580.81 550.696 1580.81 550.696 1779.406 694.788 C 2027.66 877.302 2027.66 877.302 2265.974 704.391 Z M 1551.018 262.516 C 1749.617 156.85 1749.617 156.85 1531.16 12.759 C 1352.421 -112.117 1263.05 -112.117 1054.52 -16.061 C 796.342 89.609 796.342 99.213 985.014 233.696 C 1213.403 396.999 1282.91 396.999 1551.018 262.516 Z M 3129.885 204.882 C 3338.41 80 3417.854 -35.272 3417.854 -236.999 L 3417.854 -515.575 L 3100.096 -323.451 L 2772.404 -131.334 L 2017.729 -553.996 L 1253.119 -976.661 L 945.293 -813.358 C 716.903 -678.872 637.465 -573.21 637.465 -371.482 C 637.465 -217.786 667.257 -112.117 716.903 -131.334 C 756.619 -150.545 905.57 -227.39 1054.52 -294.632 C 1302.772 -419.512 1372.279 -400.303 1997.869 -35.272 C 2365.277 185.665 2712.824 358.578 2752.546 368.18 C 2802.196 368.18 2971.004 291.335 3129.885 204.882 Z M 3110.022 -621.24 C 3189.465 -726.904 3159.675 -784.544 2980.935 -880.599 C 2782.338 -976.661 2702.893 -976.661 2524.158 -851.785 C 2315.627 -717.301 2315.627 -698.089 2494.369 -602.027 C 2742.615 -467.544 2971.004 -467.544 3110.022 -621.24 Z" style=""/>
  </g>
</svg>