 <svg  version="1.0" xmlns="http://www.w3.org/2000/svg"  width="300.000000pt" height="41.000000pt" viewBox="0 0 300.000000 41.000000"  preserveAspectRatio="xMidYMid meet">  <g transform="translate(0.000000,41.000000) scale(0.100000,-0.100000)" fill="#0857bf" stroke="none"> <path d="M113 341 c-42 -25 -43 -28 -43 -77 0 -48 2 -53 38 -76 35 -24 37 -29 34 -65 -4 -38 -2 -41 43 -68 l47 -27 39 21 39 22 39 -22 39 -21 46 27 47 27 -3 52 c-3 48 -6 52 -40 71 -35 19 -38 23 -38 65 0 43 -2 47 -45 73 l-46 27 -37 -24 -38 -24 -39 23 -40 23 -42 -27z m75 -24 c18 -22 -21 -40 -54 -25 -24 11 -25 13 -8 25 23 17 49 17 62 0z m157 -3 c15 -10 25 -26 25 -40 0 -28 -3 -29 -35 -8 -23 15 -27 13 -101 -30 -76 -43 -79 -44 -105 -29 -23 14 -45 60 -34 71 2 2 17 -4 33 -14 30 -17 30 -17 98 24 79 46 86 48 119 26z m-11 -79 c20 -15 20 -15 0 -30 -24 -18 -26 -18 -50 -1 -19 15 -19 15 1 30 25 19 25 19 49 1z m-72 -46 c20 -11 20 -11 -2 -26 -18 -13 -27 -13 -48 -3 -26 11 -26 12 -7 26 23 17 30 17 57 3z m159 -6 c21 -13 29 -25 29 -46 l0 -29 -32 20 -33 20 -76 -44 -77 -44 -31 17 c-23 14 -31 25 -31 46 0 16 3 27 8 25 4 -2 19 -10 34 -17 25 -13 32 -11 95 27 37 23 72 41 76 42 5 0 22 -8 38 -17z m-2 -86 c8 -11 5 -17 -13 -27 -20 -10 -28 -10 -46 3 -21 14 -21 16 -3 26 25 14 48 14 62 -2z"/> <path d="M640 200 l0 -100 43 -1 c47 -2 63 0 94 6 44 10 57 132 17 176 -14 15 -31 19 -86 19 l-68 0 0 -100z m115 1 c0 -51 -2 -55 -27 -62 l-28 -7 0 65 c0 64 0 64 28 61 26 -3 27 -5 27 -57z"/> <path d="M878 228 c1 -40 5 -83 7 -95 9 -42 115 -55 146 -17 7 9 15 53 17 100 l5 84 -32 0 -31 0 0 -79 c0 -64 -3 -80 -16 -85 -32 -12 -44 13 -44 90 l0 74 -28 0 -28 0 4 -72z"/> <path d="M1110 200 l0 -100 30 0 30 0 0 100 0 100 -30 0 -30 0 0 -100z"/> <path d="M1220 280 c0 -16 7 -20 31 -20 l31 0 -4 -80 -3 -80 28 0 27 0 0 80 0 80 30 0 c23 0 30 4 30 20 0 18 -7 20 -85 20 -78 0 -85 -2 -85 -20z"/> <path d="M1450 280 c0 -16 7 -20 33 -20 l32 0 -3 -80 -4 -80 32 0 32 0 -4 80 -3 80 33 0 c25 0 32 4 32 20 0 19 -7 20 -90 20 -83 0 -90 -1 -90 -20z"/> <path d="M1680 200 c0 -100 0 -100 25 -100 23 0 25 4 25 41 0 36 2 40 22 37 17 -2 25 -13 31 -41 8 -32 13 -37 37 -37 28 0 28 1 17 36 -6 20 -17 38 -24 41 -17 7 -17 23 1 23 28 0 35 59 10 84 -11 11 -35 16 -80 16 l-64 0 0 -100z m105 34 c0 -13 -8 -20 -27 -22 -25 -3 -28 0 -28 26 0 28 2 30 28 23 17 -5 27 -14 27 -27z"/> <path d="M1914 200 l-31 -100 28 0 c22 0 30 6 35 26 5 21 11 25 38 22 23 -2 32 -8 34 -25 3 -18 10 -23 33 -23 16 0 29 1 29 3 0 1 -13 45 -28 97 l-28 95 -40 3 -40 3 -30 -101z m80 36 c3 -13 9 -31 12 -40 5 -12 0 -16 -21 -16 -23 0 -26 3 -21 23 3 12 6 30 6 40 0 25 17 21 24 -7z"/> <path d="M2154 292 c-35 -23 -45 -111 -19 -161 16 -32 58 -45 112 -35 51 10 40 38 -17 44 l-45 5 0 55 0 55 43 3 c34 3 42 7 42 23 0 16 -7 19 -52 19 -29 0 -58 -4 -64 -8z"/> <path d="M2330 200 l0 -100 31 0 30 0 -7 45 c-8 59 9 59 38 1 16 -34 28 -45 50 -48 35 -6 35 3 -2 58 l-30 45 23 37 c13 20 27 43 31 50 5 8 -1 12 -21 12 -22 0 -33 -8 -51 -40 -30 -52 -47 -52 -38 0 6 39 6 40 -24 40 l-30 0 0 -100z"/> <path d="M2562 288 c-12 -12 -17 -143 -6 -172 5 -12 21 -16 74 -16 63 0 68 1 63 20 -4 16 -14 20 -49 20 -40 0 -44 2 -44 24 0 22 3 24 40 19 36 -5 40 -3 40 16 0 18 -6 21 -40 21 -33 0 -40 3 -40 20 0 17 7 20 44 20 40 0 56 11 56 36 0 10 -127 3 -138 -8z"/> <path d="M2750 200 l0 -100 31 0 c29 0 30 2 27 37 -2 24 2 38 11 41 18 6 41 -25 41 -55 0 -19 5 -23 30 -23 17 0 30 4 30 9 0 18 -21 66 -32 72 -6 4 -2 15 11 28 16 16 20 28 15 44 -12 41 -24 47 -95 47 l-69 0 0 -100z m108 38 c-2 -17 -11 -24 -30 -26 -24 -3 -28 0 -28 22 0 22 4 26 31 26 26 0 30 -3 27 -22z"/> </g> </svg> 